<?xml version="1.0" standalone="no"?><!DOCTYPE svg PUBLIC "-//W3C//DTD SVG 1.1//EN" "http://www.w3.org/Graphics/SVG/1.1/DTD/svg11.dtd"><svg t="1691446677576" class="icon" viewBox="0 0 1024 1024" version="1.1" xmlns="http://www.w3.org/2000/svg" p-id="2665" xmlns:xlink="http://www.w3.org/1999/xlink" width="200" height="200"><path d="M1002.666667 1024H21.333333a21.333333 21.333333 0 0 1-21.333333-21.333333 513.002667 513.002667 0 0 1 445.248-507.733334l5.504 42.325334A470.293333 470.293333 0 0 0 43.136 981.333333h937.728a470.293333 470.293333 0 0 0-407.616-444.032l5.504-42.325333A513.002667 513.002667 0 0 1 1024 1002.666667a21.333333 21.333333 0 0 1-21.333333 21.333333zM704 234.666667H320a21.333333 21.333333 0 0 1-12.8-4.266667l-85.333333-64a21.333333 21.333333 0 0 1 0-34.133333l85.333333-64A21.333333 21.333333 0 0 1 320 64h384a21.333333 21.333333 0 0 1 21.333333 21.333333v128a21.333333 21.333333 0 0 1-21.333333 21.333334zM327.104 192H682.666667V106.666667H327.104l-56.874667 42.666666zM704 448H320a21.333333 21.333333 0 0 1-21.333333-21.333333v-128a21.333333 21.333333 0 0 1 21.333333-21.333334h384a21.333333 21.333333 0 0 1 12.8 4.266667l85.333333 64a21.333333 21.333333 0 0 1 0 34.133333l-85.333333 64a21.333333 21.333333 0 0 1-12.8 4.266667z m-362.666667-42.666667h355.562667l56.874667-42.666666-56.874667-42.666667H341.333333z" p-id="2666" fill="#ffffff"></path><path d="M576 106.666667h-128a21.333333 21.333333 0 0 1-21.333333-21.333334V21.333333a21.333333 21.333333 0 0 1 21.333333-21.333333h128a21.333333 21.333333 0 0 1 21.333333 21.333333v64a21.333333 21.333333 0 0 1-21.333333 21.333334z m-106.666667-42.666667h85.333334V42.666667h-85.333334zM576 320h-128a21.333333 21.333333 0 0 1-21.333333-21.333333v-85.333334a21.333333 21.333333 0 0 1 21.333333-21.333333h128a21.333333 21.333333 0 0 1 21.333333 21.333333v85.333334a21.333333 21.333333 0 0 1-21.333333 21.333333z m-106.666667-42.666667h85.333334v-42.666666h-85.333334zM576 640h-128a21.333333 21.333333 0 0 1-21.333333-21.333333v-192a21.333333 21.333333 0 0 1 21.333333-21.333334h128a21.333333 21.333333 0 0 1 21.333333 21.333334v192a21.333333 21.333333 0 0 1-21.333333 21.333333z m-106.666667-42.666667h85.333334v-149.333333h-85.333334z" p-id="2667" fill="#ffffff"></path><path d="M345.6 680.298667l-19.584-37.930667A406.378667 406.378667 0 0 1 512 597.333333a401.28 401.28 0 0 1 180.224 42.176l-18.986667 38.208a363.370667 363.370667 0 0 0-327.530666 2.581334zM426.666667 1002.666667h-42.666667v-74.666667a10.666667 10.666667 0 0 0-10.666667-10.666667h-128A53.333333 53.333333 0 0 1 192 864a10.666667 10.666667 0 0 0-10.666667-10.666667H42.666667v-42.666666h138.666666a53.333333 53.333333 0 0 1 53.333334 53.333333 10.666667 10.666667 0 0 0 10.666666 10.666667h128a53.333333 53.333333 0 0 1 53.333334 53.333333zM874.666667 1002.666667h-42.666667v-85.333334a21.333333 21.333333 0 0 0-21.333333-21.333333h-85.333334a64 64 0 0 1 0-128h234.666667v42.666667H725.333333a21.333333 21.333333 0 0 0 0 42.666666h85.333334a64 64 0 0 1 64 64zM640 1002.666667h-42.666667v-53.333334a32 32 0 0 0-64 0V1002.666667h-42.666666v-53.333334a74.666667 74.666667 0 0 1 149.333333 0z" p-id="2668" fill="#ffffff"></path><path d="M469.333333 746.666667H106.666667v-42.666667h362.666666a21.333333 21.333333 0 0 0 21.333334-21.333333v-64h42.666666v64a64 64 0 0 1-64 64zM896 725.333333h-106.666667a64 64 0 0 1-64-64v-85.333333h42.666667v85.333333a21.333333 21.333333 0 0 0 21.333333 21.333334h106.666667zM341.333333 128h298.666667v42.666667H341.333333zM384 341.333333h298.666667v42.666667H384zM832 128h42.666667v128h-42.666667z" p-id="2669" fill="#ffffff"></path><path d="M789.333333 170.666667h128v42.666666h-128zM896 384h42.666667v128h-42.666667z" p-id="2670" fill="#ffffff"></path><path d="M853.333333 426.666667h128v42.666666h-128zM85.333333 448h42.666667v128H85.333333z" p-id="2671" fill="#ffffff"></path><path d="M42.666667 490.666667h128v42.666666H42.666667zM170.666667 213.333333h42.666666v128H170.666667z" p-id="2672" fill="#ffffff"></path><path d="M128 256h128v42.666667H128z" p-id="2673" fill="#ffffff"></path></svg>