<?xml version="1.0" standalone="no"?><!DOCTYPE svg PUBLIC "-//W3C//DTD SVG 1.1//EN" "http://www.w3.org/Graphics/SVG/1.1/DTD/svg11.dtd"><svg t="1691280555281" class="icon" viewBox="0 0 1024 1024" version="1.1" xmlns="http://www.w3.org/2000/svg" p-id="878" xmlns:xlink="http://www.w3.org/1999/xlink" width="200" height="200"><path d="M576.000853 516.053333V618.666667h-128v-192h128v89.386666zM448.000853 213.333333h128v85.333334h-128zM448.000853 21.333333h128v64h-128z" fill="#F1F2F2" p-id="879"></path><path d="M320.000853 298.666667h384l85.333334 64-85.333334 64H320.000853v-128zM320.000853 85.333333h384v128H320.000853l-85.333333-64 85.333333-64z" fill="#C2A88B" p-id="880"></path><path d="M746.66752 576v85.333333a42.794667 42.794667 0 0 0 42.666667 42.666667h106.666666l3.2-2.56A465.706667 465.706667 0 0 1 953.814187 789.333333H725.334187a42.794667 42.794667 0 0 0-42.666667 42.666667 42.986667 42.986667 0 0 0 42.666667 42.666667h85.333333a42.794667 42.794667 0 0 1 42.666667 42.666666v85.333334H618.66752v-53.333334a53.333333 53.333333 0 0 0-106.666667 0V1002.666667h-106.666666v-74.666667a32 32 0 0 0-32-32h-128a32 32 0 0 1-32-32A32 32 0 0 0 181.334187 832H52.054187a476.416 476.416 0 0 1 55.04-106.666667H469.334187a42.794667 42.794667 0 0 0 42.666666-42.666666v-64h64v-102.613334a482.730667 482.730667 0 0 1 172.586667 56.746667z" fill="#71D4C9" p-id="881"></path><path d="M618.66752 949.333333V1002.666667h-106.666667v-53.333334a53.333333 53.333333 0 1 1 106.666667 0zM1002.66752 1002.666667h-149.333333v-85.333334a42.794667 42.794667 0 0 0-42.666667-42.666666h-85.333333a42.986667 42.986667 0 0 1-42.666667-42.666667 42.794667 42.794667 0 0 1 42.666667-42.666667h228.48A486.4 486.4 0 0 1 1002.66752 1002.666667zM748.58752 572.8a486.101333 486.101333 0 0 1 150.613333 128.64L896.000853 704h-106.666666a42.794667 42.794667 0 0 1-42.666667-42.666667v-85.333333zM512.000853 618.666667v64a42.794667 42.794667 0 0 1-42.666666 42.666666H107.094187A490.368 490.368 0 0 1 448.000853 516.053333V618.666667zM405.334187 928V1002.666667H21.334187a487.189333 487.189333 0 0 1 30.72-170.666667H181.334187a32 32 0 0 1 32 32 32 32 0 0 0 32 32h128a32 32 0 0 1 32 32z" fill="#F1F2F2" p-id="882"></path><path d="M1002.66752 1024H21.334187a21.333333 21.333333 0 0 1-21.333334-21.333333 506.901333 506.901333 0 0 1 32-178.133334 497.301333 497.301333 0 0 1 57.6-111.274666A512.32 512.32 0 0 1 445.248853 494.933333l5.504 42.325334a469.546667 469.546667 0 0 0-326.08 200.128 454.997333 454.997333 0 0 0-52.565333 101.930666A464.170667 464.170667 0 0 0 43.136853 981.333333h937.749334a461.184 461.184 0 0 0-46.250667-182.656 445.696 445.696 0 0 0-52.202667-84.053333 467.776 467.776 0 0 0-144.128-123.136 460.053333 460.053333 0 0 0-165.077333-54.272l5.546667-42.325333a503.210667 503.210667 0 0 1 180.181333 59.264 510.4 510.4 0 0 1 157.12 134.250666 486.037333 486.037333 0 0 1 56.981333 91.733334A504.192 504.192 0 0 1 1024.000853 1002.666667a21.333333 21.333333 0 0 1-21.333333 21.333333zM448.000853 234.666667h-128a21.333333 21.333333 0 0 1-12.8-4.266667l-85.333333-64a21.333333 21.333333 0 0 1 0-34.133333l85.333333-64A21.333333 21.333333 0 0 1 320.000853 64h128v42.666667h-120.896l-56.874666 42.666666 56.874666 42.666667H448.000853zM704.000853 234.666667h-128V192h106.666667V106.666667h-106.666667V64h128a21.333333 21.333333 0 0 1 21.333334 21.333333v128a21.333333 21.333333 0 0 1-21.333334 21.333334zM704.000853 448h-128v-42.666667h120.896l56.874667-42.666666-56.874667-42.666667H576.000853v-42.666667h128a21.333333 21.333333 0 0 1 12.8 4.266667l85.333334 64a21.333333 21.333333 0 0 1 0 34.133333l-85.333334 64a21.333333 21.333333 0 0 1-12.8 4.266667zM448.000853 448h-128a21.333333 21.333333 0 0 1-21.333333-21.333333v-128a21.333333 21.333333 0 0 1 21.333333-21.333334h128v42.666667h-106.666666v85.333333h106.666666z" fill="#2A3244" p-id="883"></path><path d="M576.000853 106.666667h-128a21.333333 21.333333 0 0 1-21.333333-21.333334V21.333333a21.333333 21.333333 0 0 1 21.333333-21.333333h128a21.333333 21.333333 0 0 1 21.333334 21.333333v64a21.333333 21.333333 0 0 1-21.333334 21.333334z m-106.666666-42.666667h85.333333V42.666667h-85.333333zM576.000853 320h-128a21.333333 21.333333 0 0 1-21.333333-21.333333v-85.333334a21.333333 21.333333 0 0 1 21.333333-21.333333h128a21.333333 21.333333 0 0 1 21.333334 21.333333v85.333334a21.333333 21.333333 0 0 1-21.333334 21.333333z m-106.666666-42.666667h85.333333v-42.666666h-85.333333zM576.000853 640h-128a21.333333 21.333333 0 0 1-21.333333-21.333333v-192a21.333333 21.333333 0 0 1 21.333333-21.333334h128a21.333333 21.333333 0 0 1 21.333334 21.333334v192a21.333333 21.333333 0 0 1-21.333334 21.333333z m-106.666666-42.666667h85.333333v-149.333333h-85.333333z" fill="#2A3244" p-id="884"></path><path d="M345.814187 680.277333l-19.626667-37.888a405.952 405.952 0 0 1 365.973333-2.922666l-18.986666 38.208a363.285333 363.285333 0 0 0-327.36 2.602666zM426.66752 1002.666667h-42.666667v-74.666667a10.666667 10.666667 0 0 0-10.666666-10.666667h-128A53.333333 53.333333 0 0 1 192.000853 864a10.666667 10.666667 0 0 0-10.666666-10.666667H42.66752v-42.666666h138.666667a53.333333 53.333333 0 0 1 53.333333 53.333333 10.666667 10.666667 0 0 0 10.666667 10.666667h128a53.333333 53.333333 0 0 1 53.333333 53.333333zM874.66752 1002.666667h-42.666667v-85.333334a21.333333 21.333333 0 0 0-21.333333-21.333333h-85.333333a64.32 64.32 0 0 1-64-64 64 64 0 0 1 64-64h234.666666v42.666667H725.334187a21.333333 21.333333 0 0 0-21.333334 21.333333 20.458667 20.458667 0 0 0 6.122667 14.784A20.842667 20.842667 0 0 0 725.334187 853.333333h85.333333a64 64 0 0 1 64 64zM640.000853 1002.666667h-42.666666v-53.333334a32 32 0 0 0-64 0V1002.666667h-42.666667v-53.333334a74.666667 74.666667 0 1 1 149.333333 0z" fill="#2A3244" p-id="885"></path><path d="M469.334187 746.666667H107.094187L106.66752 704h362.666667a21.333333 21.333333 0 0 0 21.333333-21.333333v-64h42.666667v64a64 64 0 0 1-64 64zM896.000853 725.333333h-106.666666a64 64 0 0 1-64-64v-85.333333h42.666666v85.333333a21.333333 21.333333 0 0 0 21.333334 21.333334h106.666666zM341.334187 128h298.666666v42.666667H341.334187zM384.000853 341.333333h298.666667v42.666667H384.000853zM832.000853 128h42.666667v128h-42.666667z" fill="#2A3244" p-id="886"></path><path d="M789.334187 170.666667h128v42.666666h-128zM896.000853 384h42.666667v128h-42.666667z" fill="#2A3244" p-id="887"></path><path d="M853.334187 426.666667h128v42.666666h-128zM85.334187 448h42.666666v128H85.334187z" fill="#2A3244" p-id="888"></path><path d="M42.66752 490.666667h128v42.666666H42.66752zM170.66752 213.333333h42.666667v128H170.66752z" fill="#2A3244" p-id="889"></path><path d="M128.000853 256h128v42.666667H128.000853z" fill="#2A3244" p-id="890"></path></svg>